<svg width="80" height="80" viewBox="0 0 80 80" fill="none" xmlns="http://www.w3.org/2000/svg">
<path d="M43.75 67.5H78.75V7.5H1.25V67.5H36.25" fill="url(#paint0_linear)"/>
<path d="M43.75 67.5H78.75V65H1.25V67.5H36.25" fill="#5B8DC9"/>
<path d="M36.25 62.5H11.25C11.25 61.1739 10.7232 59.9021 9.78553 58.9645C8.84785 58.0268 7.57608 57.5 6.25 57.5V17.5C7.57608 17.5 8.84785 16.9732 9.78553 16.0355C10.7232 15.0979 11.25 13.8261 11.25 12.5H68.75C68.75 13.8261 69.2768 15.0979 70.2145 16.0355C71.1521 16.9732 72.4239 17.5 73.75 17.5V57.5C72.4239 57.5 71.1521 58.0268 70.2145 58.9645C69.2768 59.9021 68.75 61.1739 68.75 62.5H43.75" fill="url(#paint1_linear)"/>
<path d="M71.25 55C69.9239 55 68.6521 55.5268 67.7145 56.4645C66.7768 57.4021 66.25 58.6739 66.25 60H13.75C13.75 58.6739 13.2232 57.4021 12.2855 56.4645C11.3479 55.5268 10.0761 55 8.75 55H6.25V57.5C7.57608 57.5 8.84785 58.0268 9.78553 58.9645C10.7232 59.9021 11.25 61.1739 11.25 62.5H68.75C68.75 61.1739 69.2768 59.9021 70.2145 58.9645C71.1521 58.0268 72.4239 57.5 73.75 57.5V55H71.25Z" fill="#C7CDD8"/>
<path d="M61.25 20H18.75V27.5H61.25V20Z" fill="#C7CDD8"/>
<path d="M61.25 36.25H18.75C18.4185 36.25 18.1005 36.1183 17.8661 35.8839C17.6317 35.6495 17.5 35.3315 17.5 35C17.5 34.6685 17.6317 34.3505 17.8661 34.1161C18.1005 33.8817 18.4185 33.75 18.75 33.75H61.25C61.5815 33.75 61.8995 33.8817 62.1339 34.1161C62.3683 34.3505 62.5 34.6685 62.5 35C62.5 35.3315 62.3683 35.6495 62.1339 35.8839C61.8995 36.1183 61.5815 36.25 61.25 36.25Z" fill="#9CA0AD"/>
<path d="M61.25 42.5H18.75C18.4185 42.5 18.1005 42.3683 17.8661 42.1339C17.6317 41.8995 17.5 41.5815 17.5 41.25C17.5 40.9185 17.6317 40.6005 17.8661 40.3661C18.1005 40.1317 18.4185 40 18.75 40H61.25C61.5815 40 61.8995 40.1317 62.1339 40.3661C62.3683 40.6005 62.5 40.9185 62.5 41.25C62.5 41.5815 62.3683 41.8995 62.1339 42.1339C61.8995 42.3683 61.5815 42.5 61.25 42.5Z" fill="#9CA0AD"/>
<path d="M36.25 61.4875V72.5L40 70L43.75 72.5V61.4875" fill="url(#paint2_linear)"/>
<path d="M43.75 69.7625V72.5L40 70L36.25 72.5V69.7625L40 67.2625L43.75 69.7625Z" fill="#CF4055"/>
<path d="M26.25 55H18.75C18.4185 55 18.1005 54.8683 17.8661 54.6339C17.6317 54.3995 17.5 54.0815 17.5 53.75C17.5 53.4185 17.6317 53.1005 17.8661 52.8661C18.1005 52.6317 18.4185 52.5 18.75 52.5H26.25C26.5815 52.5 26.8995 52.6317 27.1339 52.8661C27.3683 53.1005 27.5 53.4185 27.5 53.75C27.5 54.0815 27.3683 54.3995 27.1339 54.6339C26.8995 54.8683 26.5815 55 26.25 55Z" fill="#9CA0AD"/>
<path d="M61.25 55H53.75C53.4185 55 53.1005 54.8683 52.8661 54.6339C52.6317 54.3995 52.5 54.0815 52.5 53.75C52.5 53.4185 52.6317 53.1005 52.8661 52.8661C53.1005 52.6317 53.4185 52.5 53.75 52.5H61.25C61.5815 52.5 61.8995 52.6317 62.1339 52.8661C62.3683 53.1005 62.5 53.4185 62.5 53.75C62.5 54.0815 62.3683 54.3995 62.1339 54.6339C61.8995 54.8683 61.5815 55 61.25 55Z" fill="#9CA0AD"/>
<path d="M40 62.5C44.1421 62.5 47.5 59.1421 47.5 55C47.5 50.8579 44.1421 47.5 40 47.5C35.8579 47.5 32.5 50.8579 32.5 55C32.5 59.1421 35.8579 62.5 40 62.5Z" fill="url(#paint3_linear)"/>
<path d="M40 62.5C38.9099 62.4989 37.8332 62.2602 36.8448 61.8005C35.8564 61.3408 34.9801 60.6712 34.2769 59.8383C33.5737 59.0054 33.0605 58.0293 32.773 56.9778C32.4856 55.9263 32.4308 54.8248 32.6125 53.75C33.9875 62.05 46.0125 62.0375 47.3875 53.75C47.5691 54.8248 47.5144 55.9263 47.2269 56.9778C46.9394 58.0293 46.4263 59.0054 45.723 59.8383C45.0198 60.6712 44.1435 61.3408 43.1551 61.8005C42.1667 62.2602 41.09 62.4989 40 62.5Z" fill="#F6B756"/>
<defs>
<linearGradient id="paint0_linear" x1="40" y1="67.5" x2="40" y2="7.5" gradientUnits="userSpaceOnUse">
<stop stop-color="#7AA8D7"/>
<stop offset="1" stop-color="#C3D2E7"/>
</linearGradient>
<linearGradient id="paint1_linear" x1="40" y1="62.5" x2="40" y2="12.5" gradientUnits="userSpaceOnUse">
<stop stop-color="#D4D8E1"/>
<stop offset="1" stop-color="#F3F4F5"/>
</linearGradient>
<linearGradient id="paint2_linear" x1="40" y1="72.5" x2="40" y2="61.4875" gradientUnits="userSpaceOnUse">
<stop stop-color="#DA5466"/>
<stop offset="1" stop-color="#F4929C"/>
</linearGradient>
<linearGradient id="paint3_linear" x1="40" y1="62.5" x2="40" y2="47.5" gradientUnits="userSpaceOnUse">
<stop stop-color="#FBCC88"/>
<stop offset="1" stop-color="#FFE5C3"/>
</linearGradient>
</defs>
</svg>
