<svg width="80" height="80" viewBox="0 0 80 80" fill="none" xmlns="http://www.w3.org/2000/svg">
<path d="M78.75 1.25V43.75H16.25V1.25H78.75Z" fill="url(#paint0_linear)"/>
<path d="M45 23.75V6.25C45 5.91848 45.1317 5.60054 45.3661 5.36612C45.6005 5.1317 45.9185 5 46.25 5C46.5815 5 46.8995 5.1317 47.1339 5.36612C47.3683 5.60054 47.5 5.91848 47.5 6.25V23.75C47.5 24.0815 47.3683 24.3995 47.1339 24.6339C46.8995 24.8683 46.5815 25 46.25 25C45.9185 25 45.6005 24.8683 45.3661 24.6339C45.1317 24.3995 45 24.0815 45 23.75Z" fill="#ADB3C4"/>
<path d="M78.75 40H25V43.75H78.75V40Z" fill="#4DA67F"/>
<path d="M48.75 26.525C48.75 27.8375 48.9625 27.225 39.775 38.75H26.25V78.75H7.5V60C6.17392 60 4.90215 59.4732 3.96447 58.5355C3.02678 57.5979 2.5 56.3261 2.5 55V40C2.5 38.0109 3.29018 36.1032 4.6967 34.6967C6.10322 33.2902 8.01088 32.5 10 32.5H36.475L42.325 25.4625C44.6125 22.6875 48.75 23.4875 48.75 26.525Z" fill="url(#paint1_linear)"/>
<path d="M26.25 70.475V78.75H7.5V65.125C10.7501 63.6361 14.4251 63.357 17.8629 64.3379C21.3006 65.3188 24.2749 67.4952 26.25 70.475Z" fill="#5B8DC9"/>
<path d="M8.75 40V61.25L7.5 60C7.07783 60.0038 6.65717 59.9491 6.25 59.8375V40C6.25 39.6685 6.3817 39.3505 6.61612 39.1161C6.85054 38.8817 7.16848 38.75 7.5 38.75C7.83152 38.75 8.14946 38.8817 8.38388 39.1161C8.6183 39.3505 8.75 39.6685 8.75 40Z" fill="#5B8DC9"/>
<path d="M16.875 32.5C15.0516 32.5 13.303 31.7757 12.0136 30.4864C10.7243 29.197 10 27.4484 10 25.625V23.125C10 21.3016 10.7243 19.553 12.0136 18.2636C13.303 16.9743 15.0516 16.25 16.875 16.25C18.6984 16.25 20.447 16.9743 21.7364 18.2636C23.0257 19.553 23.75 21.3016 23.75 23.125V25.625C23.75 27.4484 23.0257 29.197 21.7364 30.4864C20.447 31.7757 18.6984 32.5 16.875 32.5Z" fill="url(#paint2_linear)"/>
<path d="M38.75 66.25C37.0924 66.25 35.5027 65.5915 34.3306 64.4194C33.1585 63.2473 32.5 61.6576 32.5 60V57.5C32.5 55.8424 33.1585 54.2527 34.3306 53.0806C35.5027 51.9085 37.0924 51.25 38.75 51.25C40.4076 51.25 41.9973 51.9085 43.1694 53.0806C44.3415 54.2527 45 55.8424 45 57.5V60C45 61.6576 44.3415 63.2473 43.1694 64.4194C41.9973 65.5915 40.4076 66.25 38.75 66.25Z" fill="url(#paint3_linear)"/>
<path d="M51.25 78.75H26.25C26.25 75.4348 27.567 72.2554 29.9112 69.9112C32.2554 67.567 35.4348 66.25 38.75 66.25C42.0652 66.25 45.2446 67.567 47.5888 69.9112C49.933 72.2554 51.25 75.4348 51.25 78.75Z" fill="url(#paint4_linear)"/>
<path d="M63.75 66.25C62.0924 66.25 60.5027 65.5915 59.3306 64.4194C58.1585 63.2473 57.5 61.6576 57.5 60V57.5C57.5 55.8424 58.1585 54.2527 59.3306 53.0806C60.5027 51.9085 62.0924 51.25 63.75 51.25C65.4076 51.25 66.9973 51.9085 68.1694 53.0806C69.3415 54.2527 70 55.8424 70 57.5V60C70 61.6576 69.3415 63.2473 68.1694 64.4194C66.9973 65.5915 65.4076 66.25 63.75 66.25Z" fill="url(#paint5_linear)"/>
<path d="M76.25 78.75H51.25C51.25 75.4348 52.567 72.2554 54.9112 69.9112C57.2554 67.567 60.4348 66.25 63.75 66.25C67.0652 66.25 70.2446 67.567 72.5888 69.9112C74.933 72.2554 76.25 75.4348 76.25 78.75Z" fill="url(#paint6_linear)"/>
<path d="M13.75 66.25C12.0924 66.25 10.5027 65.5915 9.33058 64.4194C8.15848 63.2473 7.5 61.6576 7.5 60V57.5C7.5 55.8424 8.15848 54.2527 9.33058 53.0806C10.5027 51.9085 12.0924 51.25 13.75 51.25C15.4076 51.25 16.9973 51.9085 18.1694 53.0806C19.3415 54.2527 20 55.8424 20 57.5V60C20 61.6576 19.3415 63.2473 18.1694 64.4194C16.9973 65.5915 15.4076 66.25 13.75 66.25Z" fill="url(#paint7_linear)"/>
<path d="M16.875 32.5C15.0516 32.5 13.303 31.7757 12.0136 30.4864C10.7243 29.197 10 27.4484 10 25.625V23.125C10 21.3016 10.7243 19.553 12.0136 18.2636C13.303 16.9743 15.0516 16.25 16.875 16.25C18.6984 16.25 20.447 16.9743 21.7364 18.2636C23.0257 19.553 23.75 21.3016 23.75 23.125V25.625C23.75 27.4484 23.0257 29.197 21.7364 30.4864C20.447 31.7757 18.6984 32.5 16.875 32.5Z" fill="url(#paint8_linear)"/>
<path d="M38.75 66.25C37.0924 66.25 35.5027 65.5915 34.3306 64.4194C33.1585 63.2473 32.5 61.6576 32.5 60V57.5C32.5 55.8424 33.1585 54.2527 34.3306 53.0806C35.5027 51.9085 37.0924 51.25 38.75 51.25C40.4076 51.25 41.9973 51.9085 43.1694 53.0806C44.3415 54.2527 45 55.8424 45 57.5V60C45 61.6576 44.3415 63.2473 43.1694 64.4194C41.9973 65.5915 40.4076 66.25 38.75 66.25Z" fill="url(#paint9_linear)"/>
<path d="M63.75 66.25C62.0924 66.25 60.5027 65.5915 59.3306 64.4194C58.1585 63.2473 57.5 61.6576 57.5 60V57.5C57.5 55.8424 58.1585 54.2527 59.3306 53.0806C60.5027 51.9085 62.0924 51.25 63.75 51.25C65.4076 51.25 66.9973 51.9085 68.1694 53.0806C69.3415 54.2527 70 55.8424 70 57.5V60C70 61.6576 69.3415 63.2473 68.1694 64.4194C66.9973 65.5915 65.4076 66.25 63.75 66.25Z" fill="url(#paint10_linear)"/>
<path d="M13.75 66.25C12.0924 66.25 10.5027 65.5915 9.33058 64.4194C8.15848 63.2473 7.5 61.6576 7.5 60V57.5C7.5 55.8424 8.15848 54.2527 9.33058 53.0806C10.5027 51.9085 12.0924 51.25 13.75 51.25C15.4076 51.25 16.9973 51.9085 18.1694 53.0806C19.3415 54.2527 20 55.8424 20 57.5V60C20 61.6576 19.3415 63.2473 18.1694 64.4194C16.9973 65.5915 15.4076 66.25 13.75 66.25Z" fill="url(#paint11_linear)"/>
<path d="M23.75 23.125V25.625C23.75 27.4484 23.0257 29.197 21.7364 30.4864C20.447 31.7757 18.6984 32.5 16.875 32.5C15.0516 32.5 13.303 31.7757 12.0136 30.4864C10.7243 29.197 10 27.4484 10 25.625V23.125C10 24.9484 10.7243 26.697 12.0136 27.9864C13.303 29.2757 15.0516 30 16.875 30C18.6984 30 20.447 29.2757 21.7364 27.9864C23.0257 26.697 23.75 24.9484 23.75 23.125Z" fill="#EAB39B"/>
<path d="M45 57.5V60C45 61.6576 44.3415 63.2473 43.1694 64.4194C41.9973 65.5915 40.4076 66.25 38.75 66.25C37.0924 66.25 35.5027 65.5915 34.3306 64.4194C33.1585 63.2473 32.5 61.6576 32.5 60V57.5C32.5 59.1576 33.1585 60.7473 34.3306 61.9194C35.5027 63.0915 37.0924 63.75 38.75 63.75C40.4076 63.75 41.9973 63.0915 43.1694 61.9194C44.3415 60.7473 45 59.1576 45 57.5Z" fill="#EAB39B"/>
<path d="M70 57.5V60C70 61.6576 69.3415 63.2473 68.1694 64.4194C66.9973 65.5915 65.4076 66.25 63.75 66.25C62.0924 66.25 60.5027 65.5915 59.3306 64.4194C58.1585 63.2473 57.5 61.6576 57.5 60V57.5C57.5 59.1576 58.1585 60.7473 59.3306 61.9194C60.5027 63.0915 62.0924 63.75 63.75 63.75C65.4076 63.75 66.9973 63.0915 68.1694 61.9194C69.3415 60.7473 70 59.1576 70 57.5Z" fill="#EAB39B"/>
<path d="M20 57.5V60C20 61.6576 19.3415 63.2473 18.1694 64.4194C16.9973 65.5915 15.4076 66.25 13.75 66.25C12.0924 66.25 10.5027 65.5915 9.33058 64.4194C8.15848 63.2473 7.5 61.6576 7.5 60V57.5C7.5 59.1576 8.15848 60.7473 9.33058 61.9194C10.5027 63.0915 12.0924 63.75 13.75 63.75C15.4076 63.75 16.9973 63.0915 18.1694 61.9194C19.3415 60.7473 20 59.1576 20 57.5Z" fill="#EAB39B"/>
<path d="M26.25 78.75H1.25C1.25 75.4348 2.56696 72.2554 4.91117 69.9112C7.25537 67.567 10.4348 66.25 13.75 66.25C17.0652 66.25 20.2446 67.567 22.5888 69.9112C24.933 72.2554 26.25 75.4348 26.25 78.75Z" fill="url(#paint12_linear)"/>
<path d="M8.75 75V78.75H6.25V75C6.25 74.6685 6.3817 74.3505 6.61612 74.1161C6.85054 73.8817 7.16848 73.75 7.5 73.75C7.83152 73.75 8.14946 73.8817 8.38388 74.1161C8.6183 74.3505 8.75 74.6685 8.75 75Z" fill="#C7CDD8"/>
<path d="M21.25 75V78.75H18.75V75C18.75 74.6685 18.8817 74.3505 19.1161 74.1161C19.3505 73.8817 19.6685 73.75 20 73.75C20.3315 73.75 20.6495 73.8817 20.8839 74.1161C21.1183 74.3505 21.25 74.6685 21.25 75Z" fill="#C7CDD8"/>
<path d="M33.75 75V78.75H31.25V75C31.25 74.6685 31.3817 74.3505 31.6161 74.1161C31.8505 73.8817 32.1685 73.75 32.5 73.75C32.8315 73.75 33.1495 73.8817 33.3839 74.1161C33.6183 74.3505 33.75 74.6685 33.75 75Z" fill="#C7CDD8"/>
<path d="M46.25 75V78.75H43.75V75C43.75 74.6685 43.8817 74.3505 44.1161 74.1161C44.3505 73.8817 44.6685 73.75 45 73.75C45.3315 73.75 45.6495 73.8817 45.8839 74.1161C46.1183 74.3505 46.25 74.6685 46.25 75Z" fill="#C7CDD8"/>
<path d="M58.75 75V78.75H56.25V75C56.25 74.6685 56.3817 74.3505 56.6161 74.1161C56.8505 73.8817 57.1685 73.75 57.5 73.75C57.8315 73.75 58.1495 73.8817 58.3839 74.1161C58.6183 74.3505 58.75 74.6685 58.75 75Z" fill="#C7CDD8"/>
<path d="M71.25 75V78.75H68.75V75C68.75 74.6685 68.8817 74.3505 69.1161 74.1161C69.3505 73.8817 69.6685 73.75 70 73.75C70.3315 73.75 70.6495 73.8817 70.8839 74.1161C71.1183 74.3505 71.25 74.6685 71.25 75Z" fill="#C7CDD8"/>
<path d="M26 76.25C26.1654 77.0731 26.2492 77.9105 26.25 78.75H1.25001C1.24917 77.9104 1.33292 77.0728 1.50001 76.25H26Z" fill="#C7CDD8"/>
<path d="M51 76.25C51.1654 77.0731 51.2492 77.9105 51.25 78.75H26.25C26.2492 77.9104 26.3329 77.0728 26.5 76.25H51Z" fill="#C7CDD8"/>
<path d="M76.25 78.75H51.25C51.2492 77.9104 51.3329 77.0728 51.5 76.25H76C76.1654 77.0731 76.2492 77.9105 76.25 78.75Z" fill="#C7CDD8"/>
<defs>
<linearGradient id="paint0_linear" x1="47.5" y1="43.75" x2="47.5" y2="1.25" gradientUnits="userSpaceOnUse">
<stop stop-color="#6AB891"/>
<stop offset="1" stop-color="#85CBA9"/>
</linearGradient>
<linearGradient id="paint1_linear" x1="25.625" y1="78.75" x2="25.625" y2="23.7625" gradientUnits="userSpaceOnUse">
<stop stop-color="#7AA8D7"/>
<stop offset="1" stop-color="#C3D2E7"/>
</linearGradient>
<linearGradient id="paint2_linear" x1="16.875" y1="32.5" x2="16.875" y2="16.25" gradientUnits="userSpaceOnUse">
<stop stop-color="#F2C4B0"/>
<stop offset="1" stop-color="#FFE3D7"/>
</linearGradient>
<linearGradient id="paint3_linear" x1="420" y1="846.25" x2="420" y2="666.25" gradientUnits="userSpaceOnUse">
<stop stop-color="#F2C4B0"/>
<stop offset="1" stop-color="#FFE3D7"/>
</linearGradient>
<linearGradient id="paint4_linear" x1="38.75" y1="78.75" x2="38.75" y2="66.25" gradientUnits="userSpaceOnUse">
<stop stop-color="#D4D8E1"/>
<stop offset="1" stop-color="#F3F4F5"/>
</linearGradient>
<linearGradient id="paint5_linear" x1="695" y1="846.25" x2="695" y2="666.25" gradientUnits="userSpaceOnUse">
<stop stop-color="#F2C4B0"/>
<stop offset="1" stop-color="#FFE3D7"/>
</linearGradient>
<linearGradient id="paint6_linear" x1="1326.25" y1="66.25" x2="1326.25" y2="728.75" gradientUnits="userSpaceOnUse">
<stop stop-color="#D4D8E1"/>
<stop offset="1" stop-color="#F3F4F5"/>
</linearGradient>
<linearGradient id="paint7_linear" x1="145" y1="846.25" x2="145" y2="666.25" gradientUnits="userSpaceOnUse">
<stop stop-color="#F2C4B0"/>
<stop offset="1" stop-color="#FFE3D7"/>
</linearGradient>
<linearGradient id="paint8_linear" x1="16.875" y1="32.5" x2="16.875" y2="16.25" gradientUnits="userSpaceOnUse">
<stop stop-color="#F2C4B0"/>
<stop offset="1" stop-color="#FFE3D7"/>
</linearGradient>
<linearGradient id="paint9_linear" x1="420" y1="846.25" x2="420" y2="666.25" gradientUnits="userSpaceOnUse">
<stop stop-color="#F2C4B0"/>
<stop offset="1" stop-color="#FFE3D7"/>
</linearGradient>
<linearGradient id="paint10_linear" x1="695" y1="846.25" x2="695" y2="666.25" gradientUnits="userSpaceOnUse">
<stop stop-color="#F2C4B0"/>
<stop offset="1" stop-color="#FFE3D7"/>
</linearGradient>
<linearGradient id="paint11_linear" x1="145" y1="846.25" x2="145" y2="666.25" gradientUnits="userSpaceOnUse">
<stop stop-color="#F2C4B0"/>
<stop offset="1" stop-color="#FFE3D7"/>
</linearGradient>
<linearGradient id="paint12_linear" x1="276.25" y1="66.25" x2="276.25" y2="728.75" gradientUnits="userSpaceOnUse">
<stop stop-color="#D4D8E1"/>
<stop offset="1" stop-color="#F3F4F5"/>
</linearGradient>
</defs>
</svg>
